<mxfile host="app.diagrams.net" modified="2021-02-02T23:08:21.536Z" agent="5.0 (Windows NT 10.0; Win64; x64) AppleWebKit/537.36 (KHTML, like Gecko) Chrome/88.0.4324.104 Safari/537.36" etag="ofNFnh8TfbHaoGUqAxSs" version="14.2.9" type="github">
  <diagram id="R2lEEEUBdFMjLlhIrx00" name="Page-1">
    <mxGraphModel dx="1662" dy="762" grid="1" gridSize="10" guides="1" tooltips="1" connect="1" arrows="1" fold="1" page="1" pageScale="1" pageWidth="850" pageHeight="1100" math="0" shadow="0" extFonts="Permanent Marker^https://fonts.googleapis.com/css?family=Permanent+Marker">
      <root>
        <mxCell id="0" />
        <mxCell id="1" parent="0" />
        <mxCell id="sZf-92WyWhlDTkWxbgCU-1" value="users" style="shape=table;startSize=30;container=1;collapsible=1;childLayout=tableLayout;fixedRows=1;rowLines=0;fontStyle=1;align=center;resizeLast=1;" vertex="1" parent="1">
          <mxGeometry x="315" y="420" width="180" height="190" as="geometry" />
        </mxCell>
        <mxCell id="sZf-92WyWhlDTkWxbgCU-2" value="" style="shape=partialRectangle;collapsible=0;dropTarget=0;pointerEvents=0;fillColor=none;top=0;left=0;bottom=1;right=0;points=[[0,0.5],[1,0.5]];portConstraint=eastwest;" vertex="1" parent="sZf-92WyWhlDTkWxbgCU-1">
          <mxGeometry y="30" width="180" height="30" as="geometry" />
        </mxCell>
        <mxCell id="sZf-92WyWhlDTkWxbgCU-3" value="PK" style="shape=partialRectangle;connectable=0;fillColor=none;top=0;left=0;bottom=0;right=0;fontStyle=1;overflow=hidden;" vertex="1" parent="sZf-92WyWhlDTkWxbgCU-2">
          <mxGeometry width="30" height="30" as="geometry" />
        </mxCell>
        <mxCell id="sZf-92WyWhlDTkWxbgCU-4" value="id" style="shape=partialRectangle;connectable=0;fillColor=none;top=0;left=0;bottom=0;right=0;align=left;spacingLeft=6;fontStyle=5;overflow=hidden;" vertex="1" parent="sZf-92WyWhlDTkWxbgCU-2">
          <mxGeometry x="30" width="150" height="30" as="geometry" />
        </mxCell>
        <mxCell id="sZf-92WyWhlDTkWxbgCU-5" value="" style="shape=partialRectangle;collapsible=0;dropTarget=0;pointerEvents=0;fillColor=none;top=0;left=0;bottom=0;right=0;points=[[0,0.5],[1,0.5]];portConstraint=eastwest;" vertex="1" parent="sZf-92WyWhlDTkWxbgCU-1">
          <mxGeometry y="60" width="180" height="30" as="geometry" />
        </mxCell>
        <mxCell id="sZf-92WyWhlDTkWxbgCU-6" value="" style="shape=partialRectangle;connectable=0;fillColor=none;top=0;left=0;bottom=0;right=0;editable=1;overflow=hidden;" vertex="1" parent="sZf-92WyWhlDTkWxbgCU-5">
          <mxGeometry width="30" height="30" as="geometry" />
        </mxCell>
        <mxCell id="sZf-92WyWhlDTkWxbgCU-7" value="type" style="shape=partialRectangle;connectable=0;fillColor=none;top=0;left=0;bottom=0;right=0;align=left;spacingLeft=6;overflow=hidden;" vertex="1" parent="sZf-92WyWhlDTkWxbgCU-5">
          <mxGeometry x="30" width="150" height="30" as="geometry" />
        </mxCell>
        <mxCell id="sZf-92WyWhlDTkWxbgCU-137" value="" style="shape=partialRectangle;collapsible=0;dropTarget=0;pointerEvents=0;fillColor=none;top=0;left=0;bottom=0;right=0;points=[[0,0.5],[1,0.5]];portConstraint=eastwest;" vertex="1" parent="sZf-92WyWhlDTkWxbgCU-1">
          <mxGeometry y="90" width="180" height="30" as="geometry" />
        </mxCell>
        <mxCell id="sZf-92WyWhlDTkWxbgCU-138" value="" style="shape=partialRectangle;connectable=0;fillColor=none;top=0;left=0;bottom=0;right=0;editable=1;overflow=hidden;" vertex="1" parent="sZf-92WyWhlDTkWxbgCU-137">
          <mxGeometry width="30" height="30" as="geometry" />
        </mxCell>
        <mxCell id="sZf-92WyWhlDTkWxbgCU-139" value="name" style="shape=partialRectangle;connectable=0;fillColor=none;top=0;left=0;bottom=0;right=0;align=left;spacingLeft=6;overflow=hidden;" vertex="1" parent="sZf-92WyWhlDTkWxbgCU-137">
          <mxGeometry x="30" width="150" height="30" as="geometry" />
        </mxCell>
        <mxCell id="sZf-92WyWhlDTkWxbgCU-8" value="" style="shape=partialRectangle;collapsible=0;dropTarget=0;pointerEvents=0;fillColor=none;top=0;left=0;bottom=0;right=0;points=[[0,0.5],[1,0.5]];portConstraint=eastwest;" vertex="1" parent="sZf-92WyWhlDTkWxbgCU-1">
          <mxGeometry y="120" width="180" height="30" as="geometry" />
        </mxCell>
        <mxCell id="sZf-92WyWhlDTkWxbgCU-9" value="" style="shape=partialRectangle;connectable=0;fillColor=none;top=0;left=0;bottom=0;right=0;editable=1;overflow=hidden;" vertex="1" parent="sZf-92WyWhlDTkWxbgCU-8">
          <mxGeometry width="30" height="30" as="geometry" />
        </mxCell>
        <mxCell id="sZf-92WyWhlDTkWxbgCU-10" value="email" style="shape=partialRectangle;connectable=0;fillColor=none;top=0;left=0;bottom=0;right=0;align=left;spacingLeft=6;overflow=hidden;" vertex="1" parent="sZf-92WyWhlDTkWxbgCU-8">
          <mxGeometry x="30" width="150" height="30" as="geometry" />
        </mxCell>
        <mxCell id="sZf-92WyWhlDTkWxbgCU-11" value="" style="shape=partialRectangle;collapsible=0;dropTarget=0;pointerEvents=0;fillColor=none;top=0;left=0;bottom=0;right=0;points=[[0,0.5],[1,0.5]];portConstraint=eastwest;" vertex="1" parent="sZf-92WyWhlDTkWxbgCU-1">
          <mxGeometry y="150" width="180" height="30" as="geometry" />
        </mxCell>
        <mxCell id="sZf-92WyWhlDTkWxbgCU-12" value="" style="shape=partialRectangle;connectable=0;fillColor=none;top=0;left=0;bottom=0;right=0;editable=1;overflow=hidden;" vertex="1" parent="sZf-92WyWhlDTkWxbgCU-11">
          <mxGeometry width="30" height="30" as="geometry" />
        </mxCell>
        <mxCell id="sZf-92WyWhlDTkWxbgCU-13" value="password" style="shape=partialRectangle;connectable=0;fillColor=none;top=0;left=0;bottom=0;right=0;align=left;spacingLeft=6;overflow=hidden;" vertex="1" parent="sZf-92WyWhlDTkWxbgCU-11">
          <mxGeometry x="30" width="150" height="30" as="geometry" />
        </mxCell>
        <mxCell id="sZf-92WyWhlDTkWxbgCU-14" value="properties" style="shape=table;startSize=30;container=1;collapsible=1;childLayout=tableLayout;fixedRows=1;rowLines=0;fontStyle=1;align=center;resizeLast=1;" vertex="1" parent="1">
          <mxGeometry x="75" y="120" width="180" height="460" as="geometry" />
        </mxCell>
        <mxCell id="sZf-92WyWhlDTkWxbgCU-15" value="" style="shape=partialRectangle;collapsible=0;dropTarget=0;pointerEvents=0;fillColor=none;top=0;left=0;bottom=1;right=0;points=[[0,0.5],[1,0.5]];portConstraint=eastwest;" vertex="1" parent="sZf-92WyWhlDTkWxbgCU-14">
          <mxGeometry y="30" width="180" height="30" as="geometry" />
        </mxCell>
        <mxCell id="sZf-92WyWhlDTkWxbgCU-16" value="PK" style="shape=partialRectangle;connectable=0;fillColor=none;top=0;left=0;bottom=0;right=0;fontStyle=1;overflow=hidden;" vertex="1" parent="sZf-92WyWhlDTkWxbgCU-15">
          <mxGeometry width="30" height="30" as="geometry" />
        </mxCell>
        <mxCell id="sZf-92WyWhlDTkWxbgCU-17" value="id" style="shape=partialRectangle;connectable=0;fillColor=none;top=0;left=0;bottom=0;right=0;align=left;spacingLeft=6;fontStyle=5;overflow=hidden;" vertex="1" parent="sZf-92WyWhlDTkWxbgCU-15">
          <mxGeometry x="30" width="150" height="30" as="geometry" />
        </mxCell>
        <mxCell id="sZf-92WyWhlDTkWxbgCU-18" value="" style="shape=partialRectangle;collapsible=0;dropTarget=0;pointerEvents=0;fillColor=none;top=0;left=0;bottom=0;right=0;points=[[0,0.5],[1,0.5]];portConstraint=eastwest;" vertex="1" parent="sZf-92WyWhlDTkWxbgCU-14">
          <mxGeometry y="60" width="180" height="30" as="geometry" />
        </mxCell>
        <mxCell id="sZf-92WyWhlDTkWxbgCU-19" value="" style="shape=partialRectangle;connectable=0;fillColor=none;top=0;left=0;bottom=0;right=0;editable=1;overflow=hidden;" vertex="1" parent="sZf-92WyWhlDTkWxbgCU-18">
          <mxGeometry width="30" height="30" as="geometry" />
        </mxCell>
        <mxCell id="sZf-92WyWhlDTkWxbgCU-20" value="title" style="shape=partialRectangle;connectable=0;fillColor=none;top=0;left=0;bottom=0;right=0;align=left;spacingLeft=6;overflow=hidden;" vertex="1" parent="sZf-92WyWhlDTkWxbgCU-18">
          <mxGeometry x="30" width="150" height="30" as="geometry" />
        </mxCell>
        <mxCell id="sZf-92WyWhlDTkWxbgCU-21" value="" style="shape=partialRectangle;collapsible=0;dropTarget=0;pointerEvents=0;fillColor=none;top=0;left=0;bottom=0;right=0;points=[[0,0.5],[1,0.5]];portConstraint=eastwest;" vertex="1" parent="sZf-92WyWhlDTkWxbgCU-14">
          <mxGeometry y="90" width="180" height="30" as="geometry" />
        </mxCell>
        <mxCell id="sZf-92WyWhlDTkWxbgCU-22" value="" style="shape=partialRectangle;connectable=0;fillColor=none;top=0;left=0;bottom=0;right=0;editable=1;overflow=hidden;" vertex="1" parent="sZf-92WyWhlDTkWxbgCU-21">
          <mxGeometry width="30" height="30" as="geometry" />
        </mxCell>
        <mxCell id="sZf-92WyWhlDTkWxbgCU-23" value="description" style="shape=partialRectangle;connectable=0;fillColor=none;top=0;left=0;bottom=0;right=0;align=left;spacingLeft=6;overflow=hidden;" vertex="1" parent="sZf-92WyWhlDTkWxbgCU-21">
          <mxGeometry x="30" width="150" height="30" as="geometry" />
        </mxCell>
        <mxCell id="sZf-92WyWhlDTkWxbgCU-24" value="" style="shape=partialRectangle;collapsible=0;dropTarget=0;pointerEvents=0;fillColor=none;top=0;left=0;bottom=0;right=0;points=[[0,0.5],[1,0.5]];portConstraint=eastwest;" vertex="1" parent="sZf-92WyWhlDTkWxbgCU-14">
          <mxGeometry y="120" width="180" height="30" as="geometry" />
        </mxCell>
        <mxCell id="sZf-92WyWhlDTkWxbgCU-25" value="" style="shape=partialRectangle;connectable=0;fillColor=none;top=0;left=0;bottom=0;right=0;editable=1;overflow=hidden;" vertex="1" parent="sZf-92WyWhlDTkWxbgCU-24">
          <mxGeometry width="30" height="30" as="geometry" />
        </mxCell>
        <mxCell id="sZf-92WyWhlDTkWxbgCU-26" value="cost_per_night" style="shape=partialRectangle;connectable=0;fillColor=none;top=0;left=0;bottom=0;right=0;align=left;spacingLeft=6;overflow=hidden;" vertex="1" parent="sZf-92WyWhlDTkWxbgCU-24">
          <mxGeometry x="30" width="150" height="30" as="geometry" />
        </mxCell>
        <mxCell id="sZf-92WyWhlDTkWxbgCU-53" value="" style="shape=partialRectangle;collapsible=0;dropTarget=0;pointerEvents=0;fillColor=none;top=0;left=0;bottom=0;right=0;points=[[0,0.5],[1,0.5]];portConstraint=eastwest;" vertex="1" parent="sZf-92WyWhlDTkWxbgCU-14">
          <mxGeometry y="150" width="180" height="30" as="geometry" />
        </mxCell>
        <mxCell id="sZf-92WyWhlDTkWxbgCU-54" value="" style="shape=partialRectangle;connectable=0;fillColor=none;top=0;left=0;bottom=0;right=0;editable=1;overflow=hidden;" vertex="1" parent="sZf-92WyWhlDTkWxbgCU-53">
          <mxGeometry width="30" height="30" as="geometry" />
        </mxCell>
        <mxCell id="sZf-92WyWhlDTkWxbgCU-55" value="parking_spaces" style="shape=partialRectangle;connectable=0;fillColor=none;top=0;left=0;bottom=0;right=0;align=left;spacingLeft=6;overflow=hidden;" vertex="1" parent="sZf-92WyWhlDTkWxbgCU-53">
          <mxGeometry x="30" width="150" height="30" as="geometry" />
        </mxCell>
        <mxCell id="sZf-92WyWhlDTkWxbgCU-56" value="" style="shape=partialRectangle;collapsible=0;dropTarget=0;pointerEvents=0;fillColor=none;top=0;left=0;bottom=0;right=0;points=[[0,0.5],[1,0.5]];portConstraint=eastwest;" vertex="1" parent="sZf-92WyWhlDTkWxbgCU-14">
          <mxGeometry y="180" width="180" height="30" as="geometry" />
        </mxCell>
        <mxCell id="sZf-92WyWhlDTkWxbgCU-57" value="" style="shape=partialRectangle;connectable=0;fillColor=none;top=0;left=0;bottom=0;right=0;editable=1;overflow=hidden;" vertex="1" parent="sZf-92WyWhlDTkWxbgCU-56">
          <mxGeometry width="30" height="30" as="geometry" />
        </mxCell>
        <mxCell id="sZf-92WyWhlDTkWxbgCU-58" value="num_of_bathrooms" style="shape=partialRectangle;connectable=0;fillColor=none;top=0;left=0;bottom=0;right=0;align=left;spacingLeft=6;overflow=hidden;" vertex="1" parent="sZf-92WyWhlDTkWxbgCU-56">
          <mxGeometry x="30" width="150" height="30" as="geometry" />
        </mxCell>
        <mxCell id="sZf-92WyWhlDTkWxbgCU-59" value="" style="shape=partialRectangle;collapsible=0;dropTarget=0;pointerEvents=0;fillColor=none;top=0;left=0;bottom=0;right=0;points=[[0,0.5],[1,0.5]];portConstraint=eastwest;" vertex="1" parent="sZf-92WyWhlDTkWxbgCU-14">
          <mxGeometry y="210" width="180" height="30" as="geometry" />
        </mxCell>
        <mxCell id="sZf-92WyWhlDTkWxbgCU-60" value="" style="shape=partialRectangle;connectable=0;fillColor=none;top=0;left=0;bottom=0;right=0;editable=1;overflow=hidden;" vertex="1" parent="sZf-92WyWhlDTkWxbgCU-59">
          <mxGeometry width="30" height="30" as="geometry" />
        </mxCell>
        <mxCell id="sZf-92WyWhlDTkWxbgCU-61" value="num_of_bedrooms" style="shape=partialRectangle;connectable=0;fillColor=none;top=0;left=0;bottom=0;right=0;align=left;spacingLeft=6;overflow=hidden;" vertex="1" parent="sZf-92WyWhlDTkWxbgCU-59">
          <mxGeometry x="30" width="150" height="30" as="geometry" />
        </mxCell>
        <mxCell id="sZf-92WyWhlDTkWxbgCU-62" value="" style="shape=partialRectangle;collapsible=0;dropTarget=0;pointerEvents=0;fillColor=none;top=0;left=0;bottom=0;right=0;points=[[0,0.5],[1,0.5]];portConstraint=eastwest;" vertex="1" parent="sZf-92WyWhlDTkWxbgCU-14">
          <mxGeometry y="240" width="180" height="30" as="geometry" />
        </mxCell>
        <mxCell id="sZf-92WyWhlDTkWxbgCU-63" value="" style="shape=partialRectangle;connectable=0;fillColor=none;top=0;left=0;bottom=0;right=0;editable=1;overflow=hidden;" vertex="1" parent="sZf-92WyWhlDTkWxbgCU-62">
          <mxGeometry width="30" height="30" as="geometry" />
        </mxCell>
        <mxCell id="sZf-92WyWhlDTkWxbgCU-64" value="thumbnail_photo" style="shape=partialRectangle;connectable=0;fillColor=none;top=0;left=0;bottom=0;right=0;align=left;spacingLeft=6;overflow=hidden;" vertex="1" parent="sZf-92WyWhlDTkWxbgCU-62">
          <mxGeometry x="30" width="150" height="30" as="geometry" />
        </mxCell>
        <mxCell id="sZf-92WyWhlDTkWxbgCU-65" value="" style="shape=partialRectangle;collapsible=0;dropTarget=0;pointerEvents=0;fillColor=none;top=0;left=0;bottom=0;right=0;points=[[0,0.5],[1,0.5]];portConstraint=eastwest;" vertex="1" parent="sZf-92WyWhlDTkWxbgCU-14">
          <mxGeometry y="270" width="180" height="30" as="geometry" />
        </mxCell>
        <mxCell id="sZf-92WyWhlDTkWxbgCU-66" value="" style="shape=partialRectangle;connectable=0;fillColor=none;top=0;left=0;bottom=0;right=0;editable=1;overflow=hidden;" vertex="1" parent="sZf-92WyWhlDTkWxbgCU-65">
          <mxGeometry width="30" height="30" as="geometry" />
        </mxCell>
        <mxCell id="sZf-92WyWhlDTkWxbgCU-67" value="cover_photo" style="shape=partialRectangle;connectable=0;fillColor=none;top=0;left=0;bottom=0;right=0;align=left;spacingLeft=6;overflow=hidden;" vertex="1" parent="sZf-92WyWhlDTkWxbgCU-65">
          <mxGeometry x="30" width="150" height="30" as="geometry" />
        </mxCell>
        <mxCell id="sZf-92WyWhlDTkWxbgCU-83" value="" style="shape=partialRectangle;collapsible=0;dropTarget=0;pointerEvents=0;fillColor=none;top=0;left=0;bottom=0;right=0;points=[[0,0.5],[1,0.5]];portConstraint=eastwest;" vertex="1" parent="sZf-92WyWhlDTkWxbgCU-14">
          <mxGeometry y="300" width="180" height="30" as="geometry" />
        </mxCell>
        <mxCell id="sZf-92WyWhlDTkWxbgCU-84" value="FK" style="shape=partialRectangle;connectable=0;fillColor=none;top=0;left=0;bottom=0;right=0;editable=1;overflow=hidden;" vertex="1" parent="sZf-92WyWhlDTkWxbgCU-83">
          <mxGeometry width="30" height="30" as="geometry" />
        </mxCell>
        <mxCell id="sZf-92WyWhlDTkWxbgCU-85" value="owner_id" style="shape=partialRectangle;connectable=0;fillColor=none;top=0;left=0;bottom=0;right=0;align=left;spacingLeft=6;overflow=hidden;" vertex="1" parent="sZf-92WyWhlDTkWxbgCU-83">
          <mxGeometry x="30" width="150" height="30" as="geometry" />
        </mxCell>
        <mxCell id="sZf-92WyWhlDTkWxbgCU-74" value="" style="shape=partialRectangle;collapsible=0;dropTarget=0;pointerEvents=0;fillColor=none;top=0;left=0;bottom=0;right=0;points=[[0,0.5],[1,0.5]];portConstraint=eastwest;" vertex="1" parent="sZf-92WyWhlDTkWxbgCU-14">
          <mxGeometry y="330" width="180" height="30" as="geometry" />
        </mxCell>
        <mxCell id="sZf-92WyWhlDTkWxbgCU-75" value="FK" style="shape=partialRectangle;connectable=0;fillColor=none;top=0;left=0;bottom=0;right=0;editable=1;overflow=hidden;" vertex="1" parent="sZf-92WyWhlDTkWxbgCU-74">
          <mxGeometry width="30" height="30" as="geometry" />
        </mxCell>
        <mxCell id="sZf-92WyWhlDTkWxbgCU-76" value="province_id" style="shape=partialRectangle;connectable=0;fillColor=none;top=0;left=0;bottom=0;right=0;align=left;spacingLeft=6;overflow=hidden;" vertex="1" parent="sZf-92WyWhlDTkWxbgCU-74">
          <mxGeometry x="30" width="150" height="30" as="geometry" />
        </mxCell>
        <mxCell id="sZf-92WyWhlDTkWxbgCU-71" value="" style="shape=partialRectangle;collapsible=0;dropTarget=0;pointerEvents=0;fillColor=none;top=0;left=0;bottom=0;right=0;points=[[0,0.5],[1,0.5]];portConstraint=eastwest;" vertex="1" parent="sZf-92WyWhlDTkWxbgCU-14">
          <mxGeometry y="360" width="180" height="30" as="geometry" />
        </mxCell>
        <mxCell id="sZf-92WyWhlDTkWxbgCU-72" value="" style="shape=partialRectangle;connectable=0;fillColor=none;top=0;left=0;bottom=0;right=0;editable=1;overflow=hidden;" vertex="1" parent="sZf-92WyWhlDTkWxbgCU-71">
          <mxGeometry width="30" height="30" as="geometry" />
        </mxCell>
        <mxCell id="sZf-92WyWhlDTkWxbgCU-73" value="street" style="shape=partialRectangle;connectable=0;fillColor=none;top=0;left=0;bottom=0;right=0;align=left;spacingLeft=6;overflow=hidden;" vertex="1" parent="sZf-92WyWhlDTkWxbgCU-71">
          <mxGeometry x="30" width="150" height="30" as="geometry" />
        </mxCell>
        <mxCell id="sZf-92WyWhlDTkWxbgCU-77" value="" style="shape=partialRectangle;collapsible=0;dropTarget=0;pointerEvents=0;fillColor=none;top=0;left=0;bottom=0;right=0;points=[[0,0.5],[1,0.5]];portConstraint=eastwest;" vertex="1" parent="sZf-92WyWhlDTkWxbgCU-14">
          <mxGeometry y="390" width="180" height="30" as="geometry" />
        </mxCell>
        <mxCell id="sZf-92WyWhlDTkWxbgCU-78" value="" style="shape=partialRectangle;connectable=0;fillColor=none;top=0;left=0;bottom=0;right=0;editable=1;overflow=hidden;" vertex="1" parent="sZf-92WyWhlDTkWxbgCU-77">
          <mxGeometry width="30" height="30" as="geometry" />
        </mxCell>
        <mxCell id="sZf-92WyWhlDTkWxbgCU-79" value="post_code" style="shape=partialRectangle;connectable=0;fillColor=none;top=0;left=0;bottom=0;right=0;align=left;spacingLeft=6;overflow=hidden;" vertex="1" parent="sZf-92WyWhlDTkWxbgCU-77">
          <mxGeometry x="30" width="150" height="30" as="geometry" />
        </mxCell>
        <mxCell id="sZf-92WyWhlDTkWxbgCU-80" value="" style="shape=partialRectangle;collapsible=0;dropTarget=0;pointerEvents=0;fillColor=none;top=0;left=0;bottom=0;right=0;points=[[0,0.5],[1,0.5]];portConstraint=eastwest;" vertex="1" parent="sZf-92WyWhlDTkWxbgCU-14">
          <mxGeometry y="420" width="180" height="30" as="geometry" />
        </mxCell>
        <mxCell id="sZf-92WyWhlDTkWxbgCU-81" value="" style="shape=partialRectangle;connectable=0;fillColor=none;top=0;left=0;bottom=0;right=0;editable=1;overflow=hidden;" vertex="1" parent="sZf-92WyWhlDTkWxbgCU-80">
          <mxGeometry width="30" height="30" as="geometry" />
        </mxCell>
        <mxCell id="sZf-92WyWhlDTkWxbgCU-82" value="active" style="shape=partialRectangle;connectable=0;fillColor=none;top=0;left=0;bottom=0;right=0;align=left;spacingLeft=6;overflow=hidden;" vertex="1" parent="sZf-92WyWhlDTkWxbgCU-80">
          <mxGeometry x="30" width="150" height="30" as="geometry" />
        </mxCell>
        <mxCell id="sZf-92WyWhlDTkWxbgCU-27" value="reservations" style="shape=table;startSize=30;container=1;collapsible=1;childLayout=tableLayout;fixedRows=1;rowLines=0;fontStyle=1;align=center;resizeLast=1;" vertex="1" parent="1">
          <mxGeometry x="315" y="210" width="180" height="190" as="geometry" />
        </mxCell>
        <mxCell id="sZf-92WyWhlDTkWxbgCU-28" value="" style="shape=partialRectangle;collapsible=0;dropTarget=0;pointerEvents=0;fillColor=none;top=0;left=0;bottom=1;right=0;points=[[0,0.5],[1,0.5]];portConstraint=eastwest;" vertex="1" parent="sZf-92WyWhlDTkWxbgCU-27">
          <mxGeometry y="30" width="180" height="30" as="geometry" />
        </mxCell>
        <mxCell id="sZf-92WyWhlDTkWxbgCU-29" value="PK" style="shape=partialRectangle;connectable=0;fillColor=none;top=0;left=0;bottom=0;right=0;fontStyle=1;overflow=hidden;" vertex="1" parent="sZf-92WyWhlDTkWxbgCU-28">
          <mxGeometry width="30" height="30" as="geometry" />
        </mxCell>
        <mxCell id="sZf-92WyWhlDTkWxbgCU-30" value="id" style="shape=partialRectangle;connectable=0;fillColor=none;top=0;left=0;bottom=0;right=0;align=left;spacingLeft=6;fontStyle=5;overflow=hidden;" vertex="1" parent="sZf-92WyWhlDTkWxbgCU-28">
          <mxGeometry x="30" width="150" height="30" as="geometry" />
        </mxCell>
        <mxCell id="sZf-92WyWhlDTkWxbgCU-31" value="" style="shape=partialRectangle;collapsible=0;dropTarget=0;pointerEvents=0;fillColor=none;top=0;left=0;bottom=0;right=0;points=[[0,0.5],[1,0.5]];portConstraint=eastwest;" vertex="1" parent="sZf-92WyWhlDTkWxbgCU-27">
          <mxGeometry y="60" width="180" height="30" as="geometry" />
        </mxCell>
        <mxCell id="sZf-92WyWhlDTkWxbgCU-32" value="" style="shape=partialRectangle;connectable=0;fillColor=none;top=0;left=0;bottom=0;right=0;editable=1;overflow=hidden;" vertex="1" parent="sZf-92WyWhlDTkWxbgCU-31">
          <mxGeometry width="30" height="30" as="geometry" />
        </mxCell>
        <mxCell id="sZf-92WyWhlDTkWxbgCU-33" value="start_date" style="shape=partialRectangle;connectable=0;fillColor=none;top=0;left=0;bottom=0;right=0;align=left;spacingLeft=6;overflow=hidden;" vertex="1" parent="sZf-92WyWhlDTkWxbgCU-31">
          <mxGeometry x="30" width="150" height="30" as="geometry" />
        </mxCell>
        <mxCell id="sZf-92WyWhlDTkWxbgCU-34" value="" style="shape=partialRectangle;collapsible=0;dropTarget=0;pointerEvents=0;fillColor=none;top=0;left=0;bottom=0;right=0;points=[[0,0.5],[1,0.5]];portConstraint=eastwest;" vertex="1" parent="sZf-92WyWhlDTkWxbgCU-27">
          <mxGeometry y="90" width="180" height="30" as="geometry" />
        </mxCell>
        <mxCell id="sZf-92WyWhlDTkWxbgCU-35" value="" style="shape=partialRectangle;connectable=0;fillColor=none;top=0;left=0;bottom=0;right=0;editable=1;overflow=hidden;" vertex="1" parent="sZf-92WyWhlDTkWxbgCU-34">
          <mxGeometry width="30" height="30" as="geometry" />
        </mxCell>
        <mxCell id="sZf-92WyWhlDTkWxbgCU-36" value="end_date" style="shape=partialRectangle;connectable=0;fillColor=none;top=0;left=0;bottom=0;right=0;align=left;spacingLeft=6;overflow=hidden;" vertex="1" parent="sZf-92WyWhlDTkWxbgCU-34">
          <mxGeometry x="30" width="150" height="30" as="geometry" />
        </mxCell>
        <mxCell id="sZf-92WyWhlDTkWxbgCU-37" value="" style="shape=partialRectangle;collapsible=0;dropTarget=0;pointerEvents=0;fillColor=none;top=0;left=0;bottom=0;right=0;points=[[0,0.5],[1,0.5]];portConstraint=eastwest;" vertex="1" parent="sZf-92WyWhlDTkWxbgCU-27">
          <mxGeometry y="120" width="180" height="30" as="geometry" />
        </mxCell>
        <mxCell id="sZf-92WyWhlDTkWxbgCU-38" value="FK" style="shape=partialRectangle;connectable=0;fillColor=none;top=0;left=0;bottom=0;right=0;editable=1;overflow=hidden;" vertex="1" parent="sZf-92WyWhlDTkWxbgCU-37">
          <mxGeometry width="30" height="30" as="geometry" />
        </mxCell>
        <mxCell id="sZf-92WyWhlDTkWxbgCU-39" value="user_id" style="shape=partialRectangle;connectable=0;fillColor=none;top=0;left=0;bottom=0;right=0;align=left;spacingLeft=6;overflow=hidden;" vertex="1" parent="sZf-92WyWhlDTkWxbgCU-37">
          <mxGeometry x="30" width="150" height="30" as="geometry" />
        </mxCell>
        <mxCell id="sZf-92WyWhlDTkWxbgCU-92" value="" style="shape=partialRectangle;collapsible=0;dropTarget=0;pointerEvents=0;fillColor=none;top=0;left=0;bottom=0;right=0;points=[[0,0.5],[1,0.5]];portConstraint=eastwest;" vertex="1" parent="sZf-92WyWhlDTkWxbgCU-27">
          <mxGeometry y="150" width="180" height="30" as="geometry" />
        </mxCell>
        <mxCell id="sZf-92WyWhlDTkWxbgCU-93" value="FK" style="shape=partialRectangle;connectable=0;fillColor=none;top=0;left=0;bottom=0;right=0;editable=1;overflow=hidden;" vertex="1" parent="sZf-92WyWhlDTkWxbgCU-92">
          <mxGeometry width="30" height="30" as="geometry" />
        </mxCell>
        <mxCell id="sZf-92WyWhlDTkWxbgCU-94" value="property_id" style="shape=partialRectangle;connectable=0;fillColor=none;top=0;left=0;bottom=0;right=0;align=left;spacingLeft=6;overflow=hidden;" vertex="1" parent="sZf-92WyWhlDTkWxbgCU-92">
          <mxGeometry x="30" width="150" height="30" as="geometry" />
        </mxCell>
        <mxCell id="sZf-92WyWhlDTkWxbgCU-40" value="reviews" style="shape=table;startSize=30;container=1;collapsible=1;childLayout=tableLayout;fixedRows=1;rowLines=0;fontStyle=1;align=center;resizeLast=1;" vertex="1" parent="1">
          <mxGeometry x="595" y="270" width="180" height="190" as="geometry" />
        </mxCell>
        <mxCell id="sZf-92WyWhlDTkWxbgCU-41" value="" style="shape=partialRectangle;collapsible=0;dropTarget=0;pointerEvents=0;fillColor=none;top=0;left=0;bottom=1;right=0;points=[[0,0.5],[1,0.5]];portConstraint=eastwest;" vertex="1" parent="sZf-92WyWhlDTkWxbgCU-40">
          <mxGeometry y="30" width="180" height="30" as="geometry" />
        </mxCell>
        <mxCell id="sZf-92WyWhlDTkWxbgCU-42" value="PK" style="shape=partialRectangle;connectable=0;fillColor=none;top=0;left=0;bottom=0;right=0;fontStyle=1;overflow=hidden;" vertex="1" parent="sZf-92WyWhlDTkWxbgCU-41">
          <mxGeometry width="30" height="30" as="geometry" />
        </mxCell>
        <mxCell id="sZf-92WyWhlDTkWxbgCU-43" value="id" style="shape=partialRectangle;connectable=0;fillColor=none;top=0;left=0;bottom=0;right=0;align=left;spacingLeft=6;fontStyle=5;overflow=hidden;" vertex="1" parent="sZf-92WyWhlDTkWxbgCU-41">
          <mxGeometry x="30" width="150" height="30" as="geometry" />
        </mxCell>
        <mxCell id="sZf-92WyWhlDTkWxbgCU-44" value="" style="shape=partialRectangle;collapsible=0;dropTarget=0;pointerEvents=0;fillColor=none;top=0;left=0;bottom=0;right=0;points=[[0,0.5],[1,0.5]];portConstraint=eastwest;" vertex="1" parent="sZf-92WyWhlDTkWxbgCU-40">
          <mxGeometry y="60" width="180" height="30" as="geometry" />
        </mxCell>
        <mxCell id="sZf-92WyWhlDTkWxbgCU-45" value="FK" style="shape=partialRectangle;connectable=0;fillColor=none;top=0;left=0;bottom=0;right=0;editable=1;overflow=hidden;" vertex="1" parent="sZf-92WyWhlDTkWxbgCU-44">
          <mxGeometry width="30" height="30" as="geometry" />
        </mxCell>
        <mxCell id="sZf-92WyWhlDTkWxbgCU-46" value="reservation_id" style="shape=partialRectangle;connectable=0;fillColor=none;top=0;left=0;bottom=0;right=0;align=left;spacingLeft=6;overflow=hidden;" vertex="1" parent="sZf-92WyWhlDTkWxbgCU-44">
          <mxGeometry x="30" width="150" height="30" as="geometry" />
        </mxCell>
        <mxCell id="sZf-92WyWhlDTkWxbgCU-47" value="" style="shape=partialRectangle;collapsible=0;dropTarget=0;pointerEvents=0;fillColor=none;top=0;left=0;bottom=0;right=0;points=[[0,0.5],[1,0.5]];portConstraint=eastwest;" vertex="1" parent="sZf-92WyWhlDTkWxbgCU-40">
          <mxGeometry y="90" width="180" height="30" as="geometry" />
        </mxCell>
        <mxCell id="sZf-92WyWhlDTkWxbgCU-48" value="FK" style="shape=partialRectangle;connectable=0;fillColor=none;top=0;left=0;bottom=0;right=0;editable=1;overflow=hidden;" vertex="1" parent="sZf-92WyWhlDTkWxbgCU-47">
          <mxGeometry width="30" height="30" as="geometry" />
        </mxCell>
        <mxCell id="sZf-92WyWhlDTkWxbgCU-49" value="user_id" style="shape=partialRectangle;connectable=0;fillColor=none;top=0;left=0;bottom=0;right=0;align=left;spacingLeft=6;overflow=hidden;" vertex="1" parent="sZf-92WyWhlDTkWxbgCU-47">
          <mxGeometry x="30" width="150" height="30" as="geometry" />
        </mxCell>
        <mxCell id="sZf-92WyWhlDTkWxbgCU-50" value="" style="shape=partialRectangle;collapsible=0;dropTarget=0;pointerEvents=0;fillColor=none;top=0;left=0;bottom=0;right=0;points=[[0,0.5],[1,0.5]];portConstraint=eastwest;" vertex="1" parent="sZf-92WyWhlDTkWxbgCU-40">
          <mxGeometry y="120" width="180" height="30" as="geometry" />
        </mxCell>
        <mxCell id="sZf-92WyWhlDTkWxbgCU-51" value="" style="shape=partialRectangle;connectable=0;fillColor=none;top=0;left=0;bottom=0;right=0;editable=1;overflow=hidden;" vertex="1" parent="sZf-92WyWhlDTkWxbgCU-50">
          <mxGeometry width="30" height="30" as="geometry" />
        </mxCell>
        <mxCell id="sZf-92WyWhlDTkWxbgCU-52" value="message" style="shape=partialRectangle;connectable=0;fillColor=none;top=0;left=0;bottom=0;right=0;align=left;spacingLeft=6;overflow=hidden;" vertex="1" parent="sZf-92WyWhlDTkWxbgCU-50">
          <mxGeometry x="30" width="150" height="30" as="geometry" />
        </mxCell>
        <mxCell id="sZf-92WyWhlDTkWxbgCU-120" value="" style="shape=partialRectangle;collapsible=0;dropTarget=0;pointerEvents=0;fillColor=none;top=0;left=0;bottom=0;right=0;points=[[0,0.5],[1,0.5]];portConstraint=eastwest;" vertex="1" parent="sZf-92WyWhlDTkWxbgCU-40">
          <mxGeometry y="150" width="180" height="30" as="geometry" />
        </mxCell>
        <mxCell id="sZf-92WyWhlDTkWxbgCU-121" value="" style="shape=partialRectangle;connectable=0;fillColor=none;top=0;left=0;bottom=0;right=0;editable=1;overflow=hidden;" vertex="1" parent="sZf-92WyWhlDTkWxbgCU-120">
          <mxGeometry width="30" height="30" as="geometry" />
        </mxCell>
        <mxCell id="sZf-92WyWhlDTkWxbgCU-122" value="rating" style="shape=partialRectangle;connectable=0;fillColor=none;top=0;left=0;bottom=0;right=0;align=left;spacingLeft=6;overflow=hidden;" vertex="1" parent="sZf-92WyWhlDTkWxbgCU-120">
          <mxGeometry x="30" width="150" height="30" as="geometry" />
        </mxCell>
        <mxCell id="sZf-92WyWhlDTkWxbgCU-162" value="" style="edgeStyle=entityRelationEdgeStyle;fontSize=12;html=1;endArrow=ERzeroToMany;endFill=1;" edge="1" parent="1" source="sZf-92WyWhlDTkWxbgCU-2" target="sZf-92WyWhlDTkWxbgCU-83">
          <mxGeometry width="100" height="100" relative="1" as="geometry">
            <mxPoint x="265" y="270" as="sourcePoint" />
            <mxPoint x="365" y="170" as="targetPoint" />
          </mxGeometry>
        </mxCell>
        <mxCell id="sZf-92WyWhlDTkWxbgCU-163" value="" style="edgeStyle=entityRelationEdgeStyle;fontSize=12;html=1;endArrow=ERzeroToMany;endFill=1;" edge="1" parent="1" source="sZf-92WyWhlDTkWxbgCU-2" target="sZf-92WyWhlDTkWxbgCU-47">
          <mxGeometry width="100" height="100" relative="1" as="geometry">
            <mxPoint x="495" y="415" as="sourcePoint" />
            <mxPoint x="345" y="485" as="targetPoint" />
          </mxGeometry>
        </mxCell>
        <mxCell id="sZf-92WyWhlDTkWxbgCU-164" value="" style="edgeStyle=entityRelationEdgeStyle;fontSize=12;html=1;endArrow=ERmany;" edge="1" parent="1" source="sZf-92WyWhlDTkWxbgCU-2" target="sZf-92WyWhlDTkWxbgCU-37">
          <mxGeometry width="100" height="100" relative="1" as="geometry">
            <mxPoint x="415" y="420" as="sourcePoint" />
            <mxPoint x="675" y="330" as="targetPoint" />
          </mxGeometry>
        </mxCell>
        <mxCell id="sZf-92WyWhlDTkWxbgCU-168" value="" style="edgeStyle=entityRelationEdgeStyle;fontSize=12;html=1;endArrow=ERmany;exitX=1;exitY=0.5;exitDx=0;exitDy=0;" edge="1" parent="1" source="sZf-92WyWhlDTkWxbgCU-15" target="sZf-92WyWhlDTkWxbgCU-92">
          <mxGeometry width="100" height="100" relative="1" as="geometry">
            <mxPoint x="505" y="335" as="sourcePoint" />
            <mxPoint x="575" y="625" as="targetPoint" />
          </mxGeometry>
        </mxCell>
        <mxCell id="sZf-92WyWhlDTkWxbgCU-169" value="" style="edgeStyle=entityRelationEdgeStyle;fontSize=12;html=1;endArrow=ERmany;" edge="1" parent="1" source="sZf-92WyWhlDTkWxbgCU-28" target="sZf-92WyWhlDTkWxbgCU-44">
          <mxGeometry width="100" height="100" relative="1" as="geometry">
            <mxPoint x="505" y="475" as="sourcePoint" />
            <mxPoint x="505" y="355" as="targetPoint" />
          </mxGeometry>
        </mxCell>
        <mxCell id="sZf-92WyWhlDTkWxbgCU-171" value="countries" style="shape=table;startSize=30;container=1;collapsible=1;childLayout=tableLayout;fixedRows=1;rowLines=0;fontStyle=1;align=center;resizeLast=1;" vertex="1" parent="1">
          <mxGeometry x="555" y="660" width="180" height="100" as="geometry" />
        </mxCell>
        <mxCell id="sZf-92WyWhlDTkWxbgCU-172" value="" style="shape=partialRectangle;collapsible=0;dropTarget=0;pointerEvents=0;fillColor=none;top=0;left=0;bottom=1;right=0;points=[[0,0.5],[1,0.5]];portConstraint=eastwest;" vertex="1" parent="sZf-92WyWhlDTkWxbgCU-171">
          <mxGeometry y="30" width="180" height="30" as="geometry" />
        </mxCell>
        <mxCell id="sZf-92WyWhlDTkWxbgCU-173" value="PK" style="shape=partialRectangle;connectable=0;fillColor=none;top=0;left=0;bottom=0;right=0;fontStyle=1;overflow=hidden;" vertex="1" parent="sZf-92WyWhlDTkWxbgCU-172">
          <mxGeometry width="30" height="30" as="geometry" />
        </mxCell>
        <mxCell id="sZf-92WyWhlDTkWxbgCU-174" value="id" style="shape=partialRectangle;connectable=0;fillColor=none;top=0;left=0;bottom=0;right=0;align=left;spacingLeft=6;fontStyle=5;overflow=hidden;" vertex="1" parent="sZf-92WyWhlDTkWxbgCU-172">
          <mxGeometry x="30" width="150" height="30" as="geometry" />
        </mxCell>
        <mxCell id="sZf-92WyWhlDTkWxbgCU-175" value="" style="shape=partialRectangle;collapsible=0;dropTarget=0;pointerEvents=0;fillColor=none;top=0;left=0;bottom=0;right=0;points=[[0,0.5],[1,0.5]];portConstraint=eastwest;" vertex="1" parent="sZf-92WyWhlDTkWxbgCU-171">
          <mxGeometry y="60" width="180" height="30" as="geometry" />
        </mxCell>
        <mxCell id="sZf-92WyWhlDTkWxbgCU-176" value="" style="shape=partialRectangle;connectable=0;fillColor=none;top=0;left=0;bottom=0;right=0;editable=1;overflow=hidden;" vertex="1" parent="sZf-92WyWhlDTkWxbgCU-175">
          <mxGeometry width="30" height="30" as="geometry" />
        </mxCell>
        <mxCell id="sZf-92WyWhlDTkWxbgCU-177" value="name" style="shape=partialRectangle;connectable=0;fillColor=none;top=0;left=0;bottom=0;right=0;align=left;spacingLeft=6;overflow=hidden;" vertex="1" parent="sZf-92WyWhlDTkWxbgCU-175">
          <mxGeometry x="30" width="150" height="30" as="geometry" />
        </mxCell>
        <mxCell id="sZf-92WyWhlDTkWxbgCU-185" value="" style="edgeStyle=entityRelationEdgeStyle;fontSize=12;html=1;endArrow=ERoneToMany;" edge="1" parent="1" source="sZf-92WyWhlDTkWxbgCU-172" target="sZf-92WyWhlDTkWxbgCU-200">
          <mxGeometry width="100" height="100" relative="1" as="geometry">
            <mxPoint x="455" y="680" as="sourcePoint" />
            <mxPoint x="635" y="800" as="targetPoint" />
          </mxGeometry>
        </mxCell>
        <mxCell id="sZf-92WyWhlDTkWxbgCU-186" value="provinces" style="shape=table;startSize=30;container=1;collapsible=1;childLayout=tableLayout;fixedRows=1;rowLines=0;fontStyle=1;align=center;resizeLast=1;" vertex="1" parent="1">
          <mxGeometry x="315" y="630" width="180" height="130" as="geometry" />
        </mxCell>
        <mxCell id="sZf-92WyWhlDTkWxbgCU-187" value="" style="shape=partialRectangle;collapsible=0;dropTarget=0;pointerEvents=0;fillColor=none;top=0;left=0;bottom=1;right=0;points=[[0,0.5],[1,0.5]];portConstraint=eastwest;" vertex="1" parent="sZf-92WyWhlDTkWxbgCU-186">
          <mxGeometry y="30" width="180" height="30" as="geometry" />
        </mxCell>
        <mxCell id="sZf-92WyWhlDTkWxbgCU-188" value="PK" style="shape=partialRectangle;connectable=0;fillColor=none;top=0;left=0;bottom=0;right=0;fontStyle=1;overflow=hidden;" vertex="1" parent="sZf-92WyWhlDTkWxbgCU-187">
          <mxGeometry width="30" height="30" as="geometry" />
        </mxCell>
        <mxCell id="sZf-92WyWhlDTkWxbgCU-189" value="id" style="shape=partialRectangle;connectable=0;fillColor=none;top=0;left=0;bottom=0;right=0;align=left;spacingLeft=6;fontStyle=5;overflow=hidden;" vertex="1" parent="sZf-92WyWhlDTkWxbgCU-187">
          <mxGeometry x="30" width="150" height="30" as="geometry" />
        </mxCell>
        <mxCell id="sZf-92WyWhlDTkWxbgCU-190" value="" style="shape=partialRectangle;collapsible=0;dropTarget=0;pointerEvents=0;fillColor=none;top=0;left=0;bottom=0;right=0;points=[[0,0.5],[1,0.5]];portConstraint=eastwest;" vertex="1" parent="sZf-92WyWhlDTkWxbgCU-186">
          <mxGeometry y="60" width="180" height="30" as="geometry" />
        </mxCell>
        <mxCell id="sZf-92WyWhlDTkWxbgCU-191" value="" style="shape=partialRectangle;connectable=0;fillColor=none;top=0;left=0;bottom=0;right=0;editable=1;overflow=hidden;" vertex="1" parent="sZf-92WyWhlDTkWxbgCU-190">
          <mxGeometry width="30" height="30" as="geometry" />
        </mxCell>
        <mxCell id="sZf-92WyWhlDTkWxbgCU-192" value="name" style="shape=partialRectangle;connectable=0;fillColor=none;top=0;left=0;bottom=0;right=0;align=left;spacingLeft=6;overflow=hidden;" vertex="1" parent="sZf-92WyWhlDTkWxbgCU-190">
          <mxGeometry x="30" width="150" height="30" as="geometry" />
        </mxCell>
        <mxCell id="sZf-92WyWhlDTkWxbgCU-200" value="" style="shape=partialRectangle;collapsible=0;dropTarget=0;pointerEvents=0;fillColor=none;top=0;left=0;bottom=0;right=0;points=[[0,0.5],[1,0.5]];portConstraint=eastwest;" vertex="1" parent="sZf-92WyWhlDTkWxbgCU-186">
          <mxGeometry y="90" width="180" height="30" as="geometry" />
        </mxCell>
        <mxCell id="sZf-92WyWhlDTkWxbgCU-201" value="FK" style="shape=partialRectangle;connectable=0;fillColor=none;top=0;left=0;bottom=0;right=0;editable=1;overflow=hidden;" vertex="1" parent="sZf-92WyWhlDTkWxbgCU-200">
          <mxGeometry width="30" height="30" as="geometry" />
        </mxCell>
        <mxCell id="sZf-92WyWhlDTkWxbgCU-202" value="country_id" style="shape=partialRectangle;connectable=0;fillColor=none;top=0;left=0;bottom=0;right=0;align=left;spacingLeft=6;overflow=hidden;" vertex="1" parent="sZf-92WyWhlDTkWxbgCU-200">
          <mxGeometry x="30" width="150" height="30" as="geometry" />
        </mxCell>
        <mxCell id="sZf-92WyWhlDTkWxbgCU-204" value="" style="edgeStyle=entityRelationEdgeStyle;fontSize=12;html=1;endArrow=ERmany;" edge="1" parent="1" source="sZf-92WyWhlDTkWxbgCU-187" target="sZf-92WyWhlDTkWxbgCU-74">
          <mxGeometry width="100" height="100" relative="1" as="geometry">
            <mxPoint x="485" y="590" as="sourcePoint" />
            <mxPoint x="585" y="490" as="targetPoint" />
          </mxGeometry>
        </mxCell>
      </root>
    </mxGraphModel>
  </diagram>
</mxfile>
